<svg width="24" height="24" viewBox="0 0 24 24" fill="none" xmlns="http://www.w3.org/2000/svg">
<path d="M15 6.00002L13.2 4.28573L15 2.57145L13.8 1.42859L12 3.14287L10.2 1.42859L9 2.57145L10.8 4.28573L9 6.00002L10.2 7.14287L12 5.42859L13.8 7.14287L15 6.00002Z" fill="white"/>
<path d="M15 13.7143L13.2 12L15 10.2857L13.8 9.14287L12 10.8572L10.2 9.14287L9 10.2857L10.8 12L9 13.7143L10.2 14.8572L12 13.1429L13.8 14.8572L15 13.7143Z" fill="white"/>
<path d="M15 21.4286L13.2 19.7143L15 18L13.8 16.8572L12 18.5714L10.2 16.8572L9 18L10.8 19.7143L9 21.4286L10.2 22.5714L12 20.8572L13.8 22.5714L15 21.4286Z" fill="white"/>
</svg>
