<svg width="32" height="32" viewBox="0 0 32 32" fill="none" xmlns="http://www.w3.org/2000/svg">
<path d="M8.5 6C6.8455 6 5.5 7.3455 5.5 9V23C5.5 24.6545 6.8455 26 8.5 26H23.5C25.1545 26 26.5 24.6545 26.5 23V9C26.5 7.3455 25.1545 6 23.5 6H8.5ZM8.5 11.5H23.5C24.0515 11.5 24.5 11.9485 24.5 12.5V23C24.5 23.5515 24.0515 24 23.5 24H8.5C7.9485 24 7.5 23.5515 7.5 23V12.5C7.5 11.9485 7.9485 11.5 8.5 11.5ZM10.125 15.4697C9.263 15.4697 8.64551 15.9394 8.64551 16.6484C8.64551 17.2259 9.02435 17.596 9.79785 17.749L10.209 17.8301C10.695 17.9296 10.877 18.0741 10.877 18.3291C10.877 18.6136 10.582 18.8232 10.1465 18.8232C9.77598 18.8232 9.47268 18.6891 9.34668 18.3936C9.25018 18.2216 9.13916 18.1572 8.97266 18.1572C8.76316 18.1572 8.61621 18.2996 8.61621 18.5146C8.61621 18.5871 8.63168 18.6624 8.65918 18.7324C8.81468 19.1569 9.32791 19.4756 10.1289 19.4766C11.0954 19.4766 11.6895 18.9987 11.6895 18.2412C11.6895 17.6527 11.3342 17.3232 10.5117 17.1592L10.1035 17.0752C9.64452 16.9837 9.45996 16.8367 9.45996 16.5977C9.45996 16.3132 9.72598 16.125 10.126 16.125C10.459 16.125 10.7089 16.2456 10.8379 16.5381C10.9289 16.7046 11.0411 16.7773 11.2236 16.7773C11.4306 16.7773 11.5703 16.6456 11.5703 16.4521C11.5703 16.3821 11.559 16.326 11.54 16.2725C11.368 15.7675 10.834 15.4697 10.125 15.4697ZM18.708 15.4697C17.846 15.4697 17.2285 15.9394 17.2285 16.6484C17.2285 17.2259 17.6074 17.596 18.3809 17.749L18.791 17.8301C19.277 17.9296 19.46 18.0741 19.46 18.3291C19.46 18.6136 19.165 18.8232 18.7295 18.8232C18.359 18.8232 18.0557 18.6891 17.9297 18.3936C17.8332 18.2216 17.7222 18.1572 17.5557 18.1572C17.3462 18.1572 17.1992 18.2996 17.1992 18.5146C17.1992 18.5871 17.2147 18.6624 17.2422 18.7324C17.3977 19.1569 17.9109 19.4756 18.7119 19.4766C19.6784 19.4766 20.2725 18.9987 20.2725 18.2412C20.2725 17.6527 19.9172 17.3232 19.0947 17.1592L18.6865 17.0752C18.2275 16.9837 18.043 16.8367 18.043 16.5977C18.043 16.3132 18.309 16.125 18.709 16.125C19.042 16.125 19.2919 16.2456 19.4209 16.5381C19.5119 16.7046 19.6241 16.7773 19.8066 16.7773C20.0136 16.7773 20.1533 16.6456 20.1533 16.4521C20.1533 16.3821 20.142 16.326 20.123 16.2725C19.951 15.7675 19.417 15.4697 18.708 15.4697ZM16.5273 15.4766C16.3368 15.4766 16.2265 15.5733 16.168 15.7803L14.9805 19.873C14.97 19.9135 14.9619 19.9621 14.9619 20.0156C14.9619 20.1926 15.0875 20.3301 15.3105 20.3301C15.5015 20.3301 15.612 20.2414 15.668 20.0479L16.8584 15.9424C16.8714 15.8964 16.877 15.8561 16.877 15.8076C16.877 15.6116 16.7373 15.4766 16.5273 15.4766ZM13.4014 16.4707C12.8054 16.4707 12.344 16.6833 12.209 17.0273C12.1825 17.0863 12.1689 17.1421 12.1689 17.2041C12.1689 17.3816 12.3051 17.5049 12.4961 17.5049C12.6226 17.5049 12.7216 17.4569 12.8076 17.3604C12.9816 17.1349 13.1272 17.0566 13.3662 17.0566C13.6617 17.0566 13.8496 17.2129 13.8496 17.4814V17.6719L13.125 17.7148C12.4055 17.7578 12.0029 18.0615 12.0029 18.585C12.0029 19.1035 12.4193 19.4575 12.9668 19.458C13.3263 19.458 13.6867 19.2777 13.8477 18.9717H13.8633V19.1191C13.8798 19.3501 14.0273 19.4688 14.2393 19.4688C14.4628 19.4688 14.6211 19.3337 14.6211 19.0732V17.4326C14.6211 16.8526 14.1404 16.4707 13.4014 16.4707ZM21.0771 16.4736C20.8486 16.4736 20.6846 16.6163 20.6846 16.8848V18.3887C20.6846 19.0602 21.0982 19.4658 21.7207 19.4658C22.1557 19.4658 22.441 19.2561 22.583 18.8936H22.5986V19.0703C22.5986 19.3308 22.752 19.4678 22.9775 19.4678C23.203 19.4678 23.3564 19.3308 23.3564 19.0703V16.8848C23.3564 16.6163 23.1958 16.4736 22.9648 16.4736C22.7363 16.4736 22.5723 16.6163 22.5723 16.8848V18.1816C22.5723 18.5626 22.3554 18.8125 22.0059 18.8125C21.6599 18.8125 21.4688 18.6086 21.4688 18.2246V16.8848C21.4688 16.6163 21.3076 16.4736 21.0771 16.4736ZM13.8496 18.1465V18.3564C13.8496 18.6679 13.5686 18.8901 13.2246 18.8896C12.9611 18.8896 12.7842 18.756 12.7842 18.541C12.7842 18.337 12.9502 18.2051 13.2432 18.1836L13.8496 18.1465Z" fill="#F2EBEF"/>
</svg>
