<svg width="33" height="32" viewBox="0 0 33 32" fill="none" xmlns="http://www.w3.org/2000/svg">
<path d="M9.16675 6C7.51225 6 6.16675 7.3455 6.16675 9V23C6.16675 24.6545 7.51225 26 9.16675 26H24.1667C25.8212 26 27.1667 24.6545 27.1667 23V9C27.1667 7.3455 25.8212 6 24.1667 6H9.16675ZM9.16675 11.5H24.1667C24.7182 11.5 25.1667 11.9485 25.1667 12.5V23C25.1667 23.5515 24.7182 24 24.1667 24H9.16675C8.61525 24 8.16675 23.5515 8.16675 23V12.5C8.16675 11.9485 8.61525 11.5 9.16675 11.5ZM14.1667 13C13.8907 13 13.6667 13.224 13.6667 13.5V14.5C13.6667 14.776 13.8907 15 14.1667 15H15.1667C15.4427 15 15.6667 14.776 15.6667 14.5V13.5C15.6667 13.224 15.4427 13 15.1667 13H14.1667ZM18.1667 13C17.8907 13 17.6667 13.224 17.6667 13.5V14.5C17.6667 14.776 17.8907 15 18.1667 15H19.1667C19.4427 15 19.6667 14.776 19.6667 14.5V13.5C19.6667 13.224 19.4427 13 19.1667 13H18.1667ZM22.1667 13C21.8907 13 21.6667 13.224 21.6667 13.5V14.5C21.6667 14.776 21.8907 15 22.1667 15H23.1667C23.4427 15 23.6667 14.776 23.6667 14.5V13.5C23.6667 13.224 23.4427 13 23.1667 13H22.1667ZM10.1667 16.5C9.89075 16.5 9.66675 16.724 9.66675 17V18C9.66675 18.276 9.89075 18.5 10.1667 18.5H11.1667C11.4427 18.5 11.6667 18.276 11.6667 18V17C11.6667 16.724 11.4427 16.5 11.1667 16.5H10.1667ZM14.1667 16.5C13.8907 16.5 13.6667 16.724 13.6667 17V18C13.6667 18.276 13.8907 18.5 14.1667 18.5H15.1667C15.4427 18.5 15.6667 18.276 15.6667 18V17C15.6667 16.724 15.4427 16.5 15.1667 16.5H14.1667ZM18.1667 16.5C17.8907 16.5 17.6667 16.724 17.6667 17V18C17.6667 18.276 17.8907 18.5 18.1667 18.5H19.1667C19.4427 18.5 19.6667 18.276 19.6667 18V17C19.6667 16.724 19.4427 16.5 19.1667 16.5H18.1667ZM22.1667 16.5C21.8907 16.5 21.6667 16.724 21.6667 17V18C21.6667 18.276 21.8907 18.5 22.1667 18.5H23.1667C23.4427 18.5 23.6667 18.276 23.6667 18V17C23.6667 16.724 23.4427 16.5 23.1667 16.5H22.1667ZM10.1667 20C9.89075 20 9.66675 20.224 9.66675 20.5V21.5C9.66675 21.776 9.89075 22 10.1667 22H11.1667C11.4427 22 11.6667 21.776 11.6667 21.5V20.5C11.6667 20.224 11.4427 20 11.1667 20H10.1667ZM14.1667 20C13.8907 20 13.6667 20.224 13.6667 20.5V21.5C13.6667 21.776 13.8907 22 14.1667 22H15.1667C15.4427 22 15.6667 21.776 15.6667 21.5V20.5C15.6667 20.224 15.4427 20 15.1667 20H14.1667ZM18.1667 20C17.8907 20 17.6667 20.224 17.6667 20.5V21.5C17.6667 21.776 17.8907 22 18.1667 22H19.1667C19.4427 22 19.6667 21.776 19.6667 21.5V20.5C19.6667 20.224 19.4427 20 19.1667 20H18.1667Z" fill="#F2EBEF"/>
</svg>
