<svg width="33" height="32" viewBox="0 0 33 32" fill="none" xmlns="http://www.w3.org/2000/svg">
<path d="M8.83325 6C7.17875 6 5.83325 7.3455 5.83325 9V23C5.83325 24.6545 7.17875 26 8.83325 26H23.8333C25.4878 26 26.8333 24.6545 26.8333 23V9C26.8333 7.3455 25.4878 6 23.8333 6H8.83325ZM8.83325 11.5H23.8333C24.3848 11.5 24.8333 11.9485 24.8333 12.5V23C24.8333 23.5515 24.3848 24 23.8333 24H8.83325C8.28175 24 7.83325 23.5515 7.83325 23V12.5C7.83325 11.9485 8.28175 11.5 8.83325 11.5ZM13.8333 13C13.5573 13 13.3333 13.224 13.3333 13.5V14.5C13.3333 14.776 13.5573 15 13.8333 15H14.8333C15.1093 15 15.3333 14.776 15.3333 14.5V13.5C15.3333 13.224 15.1093 13 14.8333 13H13.8333ZM17.8333 13C17.5573 13 17.3333 13.224 17.3333 13.5V14.5C17.3333 14.776 17.5573 15 17.8333 15H18.8333C19.1093 15 19.3333 14.776 19.3333 14.5V13.5C19.3333 13.224 19.1093 13 18.8333 13H17.8333ZM21.8333 13C21.5573 13 21.3333 13.224 21.3333 13.5V14.5C21.3333 14.776 21.5573 15 21.8333 15H22.8333C23.1093 15 23.3333 14.776 23.3333 14.5V13.5C23.3333 13.224 23.1093 13 22.8333 13H21.8333ZM17.5774 16C17.1664 16 16.8333 16.3336 16.8333 16.7451V18.2559C16.8333 18.6669 17.1669 19 17.5784 19H19.0891C19.5001 19 19.8333 18.6664 19.8333 18.2549V16.7441C19.8333 16.3331 19.4996 16 19.0881 16H17.5774ZM9.83325 16.5C9.55725 16.5 9.33325 16.724 9.33325 17V18C9.33325 18.276 9.55725 18.5 9.83325 18.5H10.8333C11.1093 18.5 11.3333 18.276 11.3333 18V17C11.3333 16.724 11.1093 16.5 10.8333 16.5H9.83325ZM13.8333 16.5C13.5573 16.5 13.3333 16.724 13.3333 17V18C13.3333 18.276 13.5573 18.5 13.8333 18.5H14.8333C15.1093 18.5 15.3333 18.276 15.3333 18V17C15.3333 16.724 15.1093 16.5 14.8333 16.5H13.8333ZM21.8333 16.5C21.5573 16.5 21.3333 16.724 21.3333 17V18C21.3333 18.276 21.5573 18.5 21.8333 18.5H22.8333C23.1093 18.5 23.3333 18.276 23.3333 18V17C23.3333 16.724 23.1093 16.5 22.8333 16.5H21.8333ZM9.83325 20C9.55725 20 9.33325 20.224 9.33325 20.5V21.5C9.33325 21.776 9.55725 22 9.83325 22H10.8333C11.1093 22 11.3333 21.776 11.3333 21.5V20.5C11.3333 20.224 11.1093 20 10.8333 20H9.83325ZM13.8333 20C13.5573 20 13.3333 20.224 13.3333 20.5V21.5C13.3333 21.776 13.5573 22 13.8333 22H14.8333C15.1093 22 15.3333 21.776 15.3333 21.5V20.5C15.3333 20.224 15.1093 20 14.8333 20H13.8333ZM17.8333 20C17.5573 20 17.3333 20.224 17.3333 20.5V21.5C17.3333 21.776 17.5573 22 17.8333 22H18.8333C19.1093 22 19.3333 21.776 19.3333 21.5V20.5C19.3333 20.224 19.1093 20 18.8333 20H17.8333Z" fill="#F2EBEF"/>
</svg>
